<svg width="46" height="65" viewBox="0 0 46 65" fill="none" xmlns="http://www.w3.org/2000/svg">
    <rect x="21.4899" y="0.5" width="2.83284" height="64" fill="#4F4F4F"/>
    <path d="M21.49 9.99448C16.3909 4.93074 10.8668 1.78935 8.7422 0.851624L7.17801 2.94115C14.2601 6.59829 19.7194 11.6516 21.49 13.7615V9.99448Z" fill="#4F4F4F"/>
    <path d="M21.4899 18.7856C14.4078 11.401 6.59166 8.23026 4.46703 7.29254L3.42679 9.90628C11.9253 13.7744 16.5325 17.2492 21.4899 22.5239V18.7856Z" fill="#4F4F4F"/>
    <path d="M21.4899 26.5219C15.5151 20.6335 7.60354 17.0287 1.66002 14.9175L1.18805 17.5702C9.68656 21.0867 14.8606 23.6558 21.4899 30.1963V26.5219Z" fill="#4F4F4F"/>
    <path d="M21.4899 42.3353C14.793 36.2347 8.03873 33.1725 -0.000488281 30.6334L0.170761 34.0509C7.77662 36.4343 14.8606 39.4692 21.4899 46.0097V42.3353Z" fill="#4F4F4F"/>
    <path d="M21.49 50.4438C15.9337 44.797 10.7793 42.2605 1.18552 39.3759L2.02128 42.7587C10.5771 45.0797 14.8607 47.5776 21.49 54.1181V50.4438Z" fill="#4F4F4F"/>
    <path d="M21.4901 57.8157C16.7638 53.2692 10.439 49.9954 4.02829 48.2852L5.76177 51.7285C12.2786 54.0923 17.4498 57.235 21.4901 61.4901V57.8157Z" fill="#4F4F4F"/>
    <path d="M21.4899 34.0824C13.607 26.6878 3.59885 23.5058 0.0578003 22.0992V25.1115C8.95318 28.2129 15.3755 31.7253 21.4899 37.5989V34.0824Z" fill="#4F4F4F"/>
    <path d="M25.7493 8.73022C30.5619 4.30072 33.2931 2.7098 37.0765 0.745178L38.9252 2.6688C32.2288 6.45958 29.3881 8.55537 25.7493 12.1981V8.73022Z" fill="#4F4F4F"/>
    <path d="M26.1068 16.9187C31.7064 11.6733 36.3448 9.41195 41.3022 7.30206L42.3821 9.64281C35.2278 13.2178 32.6161 14.2669 26.1068 20.2812V16.9187Z" fill="#4F4F4F"/>
    <path d="M26.4797 24.5968C32.4995 19.6737 38.2504 16.9583 44.2702 14.4968L44.8608 17.3792C39.1952 19.8407 34.6241 21.0803 26.4797 28.1133V24.5968Z" fill="#4F4F4F"/>
    <path d="M26.4796 32.4023C32.9681 27.4792 39.1667 24.7638 45.6552 22.3022L45.9995 25.2755C39.8928 27.737 35.2581 28.8858 26.4796 35.9188V32.4023Z" fill="#4F4F4F"/>
    <path d="M26.4796 39.9486C32.9681 35.0255 39.0492 32.5929 45.8842 30.848V33.9824C43.1555 34.5654 34.9753 36.425 26.4796 43.4651V39.9486Z" fill="#4F4F4F"/>
    <path d="M26.8472 47.7402C33.3357 42.8171 38.1508 41.0319 44.9858 39.2871L44.4754 42.3737C41.7467 42.9567 35.3429 44.2167 26.8472 51.2567V47.7402Z" fill="#4F4F4F"/>
    <path d="M27.1061 55.3742C31.9079 51.8725 38.3922 48.9961 41.7087 48.4518L40.1463 51.7241C37.664 52.48 32.6665 54.3206 27.1061 58.8907V55.3742Z" fill="#4F4F4F"/>
</svg>
