<svg width="20" height="21" viewBox="0 0 20 21" fill="none" xmlns="http://www.w3.org/2000/svg">
    <g clip-path="url(#clip0_349_195)">
        <path d="M14.0684 12.9397C13.5856 12.4566 12.8013 12.4566 12.3183 12.9397L11.3781 13.871L11.3769 13.8716C11.0147 14.1022 9.66964 13.5823 8.29618 12.2078C6.92186 10.834 6.40109 9.48771 6.63233 9.12708L6.64652 9.10503C6.6484 9.10229 6.65113 9.0999 6.65301 9.097L7.56398 8.18603C7.79796 7.95204 7.92649 7.64149 7.92649 7.31061C7.92649 6.97972 7.79796 6.66917 7.56398 6.43553L3.82183 2.69337C3.34019 2.21088 2.55467 2.20968 2.07218 2.69337L0.652062 4.11332C-0.24797 5.01301 -0.216009 6.68865 0.741963 8.8314C1.64678 10.8554 3.27969 13.1044 5.34005 15.1644C7.39991 17.2243 9.64896 18.8574 11.6729 19.762C12.7794 20.2566 13.7611 20.5043 14.5761 20.5043C15.339 20.5043 15.9553 20.2871 16.3907 19.8519L17.8106 18.4318C18.2931 17.9495 18.2931 17.1646 17.8106 16.6821L14.0684 12.9397ZM2.63774 3.2591C2.8078 3.08869 3.08553 3.08869 3.25627 3.2591L6.99843 7.00159C7.08115 7.08397 7.12644 7.1937 7.12644 7.31061C7.12644 7.42734 7.08115 7.53707 6.99843 7.61996L6.28418 8.33404L1.92332 3.97317L2.63774 3.2591ZM15.8249 19.2862C14.5612 20.5489 10.274 18.9671 5.90527 14.5987C3.91258 12.606 2.33813 10.4417 1.47245 8.50478C0.671204 6.71292 0.578569 5.31861 1.21779 4.67905L1.35776 4.5389L5.82801 9.00932C5.56498 10.0204 6.5708 11.6142 7.73045 12.7735C8.76414 13.8072 10.1443 14.7226 11.1479 14.7226C11.2709 14.7226 11.3883 14.7088 11.4988 14.6799L15.9651 19.1462L15.8249 19.2862ZM17.2451 17.8662L16.5308 18.5807L12.1699 14.2198L12.884 13.5052C13.0544 13.335 13.3325 13.335 13.5029 13.5052L17.2451 17.2477C17.4153 17.4181 17.4153 17.6958 17.2451 17.8662Z" fill="#A2652C"/>
        <path d="M15.8249 19.2862C14.5612 20.5489 10.274 18.9671 5.90527 14.5987C3.91258 12.606 2.33813 10.4417 1.47245 8.50478C0.671204 6.71292 0.578569 5.31861 1.21779 4.67905L1.35776 4.5389L5.82801 9.00932C5.56498 10.0204 6.5708 11.6142 7.73045 12.7735C8.76414 13.8072 10.1443 14.7226 11.1479 14.7226C11.2709 14.7226 11.3883 14.7088 11.4988 14.6799L15.9651 19.1462L15.8249 19.2862Z" fill="#A2652C"/>
        <path d="M17.6635 2.83743C16.1586 1.3327 14.162 0.504456 12.0403 0.504456C12.0375 0.504456 12.0348 0.504456 12.0324 0.504456C11.8118 0.504797 11.6325 0.683744 11.6328 0.904906C11.6332 1.12556 11.8121 1.3045 12.0329 1.3045H12.0403C13.9482 1.3045 15.7441 2.04986 17.0978 3.40315C18.453 4.75867 19.1995 6.55856 19.1995 8.47126C19.1995 8.69225 19.3785 8.8712 19.5996 8.8712C19.8206 8.8712 19.9996 8.69225 19.9996 8.47126C19.9996 6.34475 19.1698 4.34386 17.6635 2.83743Z" fill="#A2652C"/>
        <path d="M12.0344 3.99689C14.5002 3.99689 16.5062 6.0029 16.5062 8.4685C16.5062 8.68949 16.6851 8.86844 16.9063 8.86844C17.1274 8.86844 17.3062 8.68949 17.3062 8.4685C17.3062 5.5616 14.9413 3.19684 12.0344 3.19684C11.8132 3.19684 11.6343 3.37579 11.6343 3.59695C11.6343 3.81794 11.8132 3.99689 12.0344 3.99689Z" fill="#A2652C"/>
        <path d="M12.0344 6.69103C13.0146 6.69103 13.8119 7.48834 13.8119 8.46853C13.8119 8.68952 13.9908 8.86847 14.2118 8.86847C14.433 8.86847 14.6119 8.68952 14.6119 8.46853C14.6119 7.04721 13.4555 5.89081 12.0344 5.89081C11.8132 5.89081 11.6343 6.06975 11.6343 6.29092C11.6343 6.51208 11.8132 6.69103 12.0344 6.69103Z" fill="#A2652C"/>
    </g>
    <defs>
        <clipPath id="clip0_349_195">
            <rect width="20" height="20" fill="white" transform="translate(-0.000488281 0.5)"/>
        </clipPath>
    </defs>
</svg>
