<svg width="38" height="39" viewBox="0 0 38 39" fill="none" xmlns="http://www.w3.org/2000/svg">
    <g filter="url(#filter0_d_365_107)">
        <g clip-path="url(#clip0_365_107)">
            <path d="M16.9995 32.5C25.2838 32.5 31.9995 25.7843 31.9995 17.5C31.9995 9.21573 25.2838 2.5 16.9995 2.5C8.71524 2.5 1.99951 9.21573 1.99951 17.5C1.99951 25.7843 8.71524 32.5 16.9995 32.5Z" fill="#039BE5"/>
            <path d="M8.86322 17.175L23.3257 11.5988C23.997 11.3563 24.5832 11.7625 24.3657 12.7775L24.367 12.7763L21.9045 24.3775C21.722 25.2 21.2332 25.4 20.5495 25.0125L16.7995 22.2488L14.9907 23.9913C14.7907 24.1913 14.622 24.36 14.2345 24.36L14.5007 20.5438L21.4507 14.265C21.7532 13.9988 21.3832 13.8488 20.9845 14.1138L12.3957 19.5213L8.69322 18.3663C7.88947 18.1113 7.87197 17.5625 8.86322 17.175V17.175Z" fill="white"/>
        </g>
    </g>
    <defs>
        <filter id="filter0_d_365_107" x="-0.000488281" y="0.5" width="38" height="38" filterUnits="userSpaceOnUse" color-interpolation-filters="sRGB">
            <feFlood flood-opacity="0" result="BackgroundImageFix"/>
            <feColorMatrix in="SourceAlpha" type="matrix" values="0 0 0 0 0 0 0 0 0 0 0 0 0 0 0 0 0 0 127 0" result="hardAlpha"/>
            <feOffset dx="2" dy="2"/>
            <feGaussianBlur stdDeviation="2"/>
            <feComposite in2="hardAlpha" operator="out"/>
            <feColorMatrix type="matrix" values="0 0 0 0 0 0 0 0 0 0 0 0 0 0 0 0 0 0 0.25 0"/>
            <feBlend mode="normal" in2="BackgroundImageFix" result="effect1_dropShadow_365_107"/>
            <feBlend mode="normal" in="SourceGraphic" in2="effect1_dropShadow_365_107" result="shape"/>
        </filter>
        <clipPath id="clip0_365_107">
            <rect x="1.99951" y="2.5" width="30" height="30" rx="15" fill="white"/>
        </clipPath>
    </defs>
</svg>
