<?xml version="1.0" encoding="utf-8"?><svg viewBox="0 0 46 65" xmlns="http://www.w3.org/2000/svg" xmlns:xlink="http://www.w3.org/1999/xlink"><style>:root>svg{display:none}:root>svg:target{display:block}</style><svg fill="none" viewBox="0 0 46 65" id="logo" xmlns="http://www.w3.org/2000/svg"><path fill="#4F4F4F" d="M21.49.5h2.833v64H21.49z"/><path d="M21.49 9.994C16.39 4.931 10.867 1.79 8.742.852l-1.564 2.09c7.082 3.656 12.541 8.71 14.312 10.82V9.994ZM21.49 18.786C14.408 11.4 6.592 8.23 4.467 7.293l-1.04 2.613c8.498 3.868 13.105 7.343 18.063 12.618v-3.738ZM21.49 26.522c-5.975-5.888-13.886-9.493-19.83-11.604l-.472 2.652c8.499 3.517 13.673 6.086 20.302 12.626v-3.674ZM21.49 42.335C14.793 36.235 8.039 33.172 0 30.633l.17 3.418c7.607 2.383 14.69 5.418 21.32 11.959v-3.675ZM21.49 50.444c-5.556-5.647-10.71-8.184-20.304-11.068l.835 3.383c8.556 2.32 12.84 4.819 19.469 11.36v-3.675ZM21.49 57.816c-4.726-4.547-11.051-7.82-17.462-9.53l1.734 3.442c6.517 2.364 11.688 5.507 15.728 9.762v-3.674ZM21.49 34.082C13.607 26.688 3.599 23.506.058 22.1v3.012C8.953 28.213 15.376 31.726 21.49 37.6v-3.517ZM25.75 8.73C30.561 4.3 33.292 2.71 37.076.745l1.848 1.924c-6.696 3.79-9.537 5.886-13.176 9.53V8.73ZM26.107 16.919c5.6-5.246 10.238-7.507 15.195-9.617l1.08 2.34c-7.154 3.576-9.766 4.625-16.275 10.64v-3.363ZM26.48 24.597c6.02-4.923 11.77-7.639 17.79-10.1l.59 2.882c-5.665 2.462-10.236 3.701-18.38 10.734v-3.516ZM26.48 32.402c6.488-4.923 12.687-7.638 19.175-10.1L46 25.276c-6.106 2.461-10.74 3.61-19.52 10.643v-3.517ZM26.48 39.949c6.488-4.923 12.57-7.356 19.404-9.101v3.134c-2.728.583-10.909 2.443-19.404 9.483V39.95ZM26.847 47.74c6.489-4.923 11.304-6.708 18.139-8.453l-.51 3.087c-2.73.583-9.133 1.843-17.629 8.883V47.74ZM27.106 55.374c4.802-3.502 11.286-6.378 14.603-6.922l-1.563 3.272c-2.482.756-7.48 2.597-13.04 7.167v-3.517Z" fill="#4F4F4F"/></svg><svg fill="none" viewBox="0 0 20 21" id="phone" xmlns="http://www.w3.org/2000/svg"><g clip-path="url(#ba)" fill="#A2652C"><path d="M14.068 12.94a1.238 1.238 0 0 0-1.75 0l-.94.931h-.001c-.362.231-1.707-.289-3.08-1.663-1.375-1.374-1.896-2.72-1.665-3.08l.015-.023.006-.008.911-.911a1.23 1.23 0 0 0 .362-.875c0-.331-.128-.642-.362-.875L3.822 2.693a1.237 1.237 0 0 0-1.75 0l-1.42 1.42c-.9.9-.868 2.576.09 4.718.905 2.024 2.538 4.273 4.598 6.333 2.06 2.06 4.309 3.693 6.333 4.598 1.106.495 2.088.742 2.903.742.763 0 1.38-.217 1.815-.652l1.42-1.42a1.238 1.238 0 0 0 0-1.75l-3.743-3.742ZM2.638 3.26c.17-.171.448-.171.618 0l3.742 3.742a.435.435 0 0 1 0 .618l-.714.714-4.36-4.36.714-.715Zm13.187 16.026c-1.264 1.263-5.551-.319-9.92-4.687-1.992-1.993-3.567-4.157-4.433-6.094-.8-1.792-.893-3.186-.254-3.826l.14-.14 4.47 4.47c-.263 1.011.743 2.605 1.902 3.764 1.034 1.034 2.414 1.95 3.418 1.95.123 0 .24-.014.35-.043l4.467 4.466-.14.14Zm1.42-1.42-.714.715-4.361-4.361.714-.715c.17-.17.448-.17.619 0l3.742 3.743c.17.17.17.448 0 .618Z"/><path d="M15.825 19.286c-1.264 1.263-5.551-.319-9.92-4.687-1.992-1.993-3.567-4.157-4.433-6.094-.8-1.792-.893-3.186-.254-3.826l.14-.14 4.47 4.47c-.263 1.011.743 2.605 1.902 3.764 1.034 1.034 2.414 1.95 3.418 1.95.123 0 .24-.014.35-.043l4.467 4.466-.14.14ZM17.663 2.837A7.902 7.902 0 0 0 12.04.504h-.008a.4.4 0 0 0 0 .8h.008c1.908 0 3.704.746 5.058 2.1A7.123 7.123 0 0 1 19.2 8.47a.4.4 0 1 0 .8 0c0-2.126-.83-4.127-2.337-5.634Z"/><path d="M12.034 3.997a4.477 4.477 0 0 1 4.472 4.472.4.4 0 1 0 .8 0 5.278 5.278 0 0 0-5.272-5.272.4.4 0 1 0 0 .8ZM12.034 6.691c.98 0 1.778.797 1.778 1.778a.4.4 0 1 0 .8 0 2.58 2.58 0 0 0-2.578-2.578.4.4 0 1 0 0 .8Z"/></g><defs><clipPath id="ba"><path fill="#fff" transform="translate(0 .5)" d="M0 0h20v20H0z"/></clipPath></defs></svg><svg fill="none" viewBox="0 0 17 27" id="play_button" xmlns="http://www.w3.org/2000/svg"><g filter="url(#ca)"><path d="m0 0 16.595 13.348L0 26.696V0Z" fill="#fff"/></g><defs><filter id="ca" x="0" y="0" width="16.595" height="27.696" filterUnits="userSpaceOnUse" color-interpolation-filters="sRGB"><feFlood flood-opacity="0" result="BackgroundImageFix"/><feBlend in="SourceGraphic" in2="BackgroundImageFix" result="shape"/><feColorMatrix in="SourceAlpha" values="0 0 0 0 0 0 0 0 0 0 0 0 0 0 0 0 0 0 127 0" result="hardAlpha"/><feOffset dy="1"/><feGaussianBlur stdDeviation=".5"/><feComposite in2="hardAlpha" operator="arithmetic" k2="-1" k3="1"/><feColorMatrix values="0 0 0 0 0 0 0 0 0 0 0 0 0 0 0 0 0 0 0.25 0"/><feBlend in2="shape" result="effect1_innerShadow_419_220"/></filter></defs></svg><svg fill="none" viewBox="0 0 38 39" id="telegram" xmlns="http://www.w3.org/2000/svg"><g filter="url(#da)"><g clip-path="url(#db)"><path d="M17 32.5c8.284 0 15-6.716 15-15 0-8.284-6.716-15-15-15-8.285 0-15 6.716-15 15 0 8.284 6.715 15 15 15Z" fill="#039BE5"/><path d="m8.863 17.175 14.463-5.576c.671-.243 1.257.163 1.04 1.178h.001l-2.463 11.6c-.182.823-.67 1.023-1.355.636l-3.75-2.764-1.808 1.742c-.2.2-.369.369-.756.369l.266-3.816 6.95-6.279c.302-.266-.068-.416-.466-.151l-8.59 5.407-3.702-1.155c-.804-.255-.821-.803.17-1.191Z" fill="#fff"/></g></g><defs><clipPath id="db"><rect x="2" y="2.5" width="30" height="30" rx="15" fill="#fff"/></clipPath><filter id="da" x="0" y=".5" width="38" height="38" filterUnits="userSpaceOnUse" color-interpolation-filters="sRGB"><feFlood flood-opacity="0" result="BackgroundImageFix"/><feColorMatrix in="SourceAlpha" values="0 0 0 0 0 0 0 0 0 0 0 0 0 0 0 0 0 0 127 0" result="hardAlpha"/><feOffset dx="2" dy="2"/><feGaussianBlur stdDeviation="2"/><feComposite in2="hardAlpha" operator="out"/><feColorMatrix values="0 0 0 0 0 0 0 0 0 0 0 0 0 0 0 0 0 0 0.25 0"/><feBlend in2="BackgroundImageFix" result="effect1_dropShadow_365_107"/><feBlend in="SourceGraphic" in2="effect1_dropShadow_365_107" result="shape"/></filter></defs></svg><svg fill="none" viewBox="0 0 38 39" id="whatsapp" xmlns="http://www.w3.org/2000/svg"><g filter="url(#ea)" fill-rule="evenodd" clip-rule="evenodd"><path d="m2.748 31.755 2.013-7.32a14.052 14.052 0 0 1-1.895-7.064C2.87 9.581 9.236 3.244 17.06 3.244A14.134 14.134 0 0 1 27.1 7.387a14.013 14.013 0 0 1 4.152 9.995c-.003 7.79-6.37 14.128-14.192 14.128-.001 0 0 0 0 0h-.006c-2.375 0-4.71-.594-6.783-1.72l-7.523 1.965Z" fill="#fff"/><path d="M2.747 32.127a.373.373 0 0 1-.36-.47l1.973-7.172a14.451 14.451 0 0 1-1.867-7.113c.003-7.996 6.537-14.5 14.566-14.5a14.509 14.509 0 0 1 10.304 4.253 14.38 14.38 0 0 1 4.263 10.257c-.003 7.995-6.538 14.5-14.567 14.5-2.383 0-4.742-.586-6.835-1.695l-7.382 1.927a.344.344 0 0 1-.095.013Z" fill="#fff"/><path d="M17.06 3.244a14.134 14.134 0 0 1 10.039 4.143 14.013 14.013 0 0 1 4.153 9.995c-.003 7.79-6.37 14.128-14.192 14.128h-.006c-2.375 0-4.71-.594-6.783-1.72l-7.524 1.965 2.014-7.32a14.052 14.052 0 0 1-1.895-7.064C2.87 9.581 9.236 3.244 17.06 3.244Zm0-.744C8.825 2.5 2.122 9.17 2.119 17.371c-.001 2.506.634 4.976 1.84 7.162L2.025 31.56c-.07.257.001.53.19.72a.75.75 0 0 0 .721.196l7.242-1.89a15.022 15.022 0 0 0 6.875 1.67c8.24 0 14.943-6.671 14.946-14.872A14.748 14.748 0 0 0 27.63 6.862 14.885 14.885 0 0 0 17.059 2.5Z" fill="#CFD8DC"/><path d="M25.404 9.074a11.742 11.742 0 0 0-8.34-3.443c-6.507 0-11.799 5.267-11.802 11.741 0 2.219.623 4.379 1.804 6.25l.28.444-1.191 4.333 4.465-1.166.431.255a11.811 11.811 0 0 0 6.004 1.636h.005c6.502 0 11.793-5.267 11.796-11.742 0-3.138-1.225-6.088-3.453-8.308Z" fill="#40C351"/><path d="M13.512 11.466c-.266-.588-.545-.6-.799-.61-.207-.01-.443-.009-.679-.009-.236 0-.62.089-.946.442-.325.354-1.241 1.207-1.241 2.945 0 1.737 1.27 3.416 1.448 3.652.177.235 2.453 3.914 6.058 5.33 2.995 1.176 3.605.942 4.255.883.65-.058 2.099-.853 2.394-1.678.295-.825.295-1.531.207-1.679-.089-.147-.325-.235-.68-.412-.354-.177-2.098-1.03-2.423-1.148-.325-.118-.561-.177-.798.177-.237.352-.916 1.148-1.123 1.383-.207.236-.414.266-.769.089-.354-.177-1.496-.55-2.851-1.752-1.054-.936-1.766-2.092-1.973-2.445-.207-.353-.023-.544.155-.72.16-.16.355-.413.533-.62.177-.206.236-.353.354-.588.118-.236.059-.442-.03-.619-.087-.177-.777-1.923-1.092-2.621Z" fill="#fff"/></g><defs><filter id="ea" x="0" y=".5" width="38.001" height="38" filterUnits="userSpaceOnUse" color-interpolation-filters="sRGB"><feFlood flood-opacity="0" result="BackgroundImageFix"/><feColorMatrix in="SourceAlpha" values="0 0 0 0 0 0 0 0 0 0 0 0 0 0 0 0 0 0 127 0" result="hardAlpha"/><feOffset dx="2" dy="2"/><feGaussianBlur stdDeviation="2"/><feComposite in2="hardAlpha" operator="out"/><feColorMatrix values="0 0 0 0 0 0 0 0 0 0 0 0 0 0 0 0 0 0 0.25 0"/><feBlend in2="BackgroundImageFix" result="effect1_dropShadow_365_143"/><feBlend in="SourceGraphic" in2="effect1_dropShadow_365_143" result="shape"/></filter></defs></svg></svg>